<?xml version="1.0" standalone="no"?>
<!DOCTYPE svg PUBLIC "-//W3C//DTD SVG 20010904//EN"
 "http://www.w3.org/TR/2001/REC-SVG-20010904/DTD/svg10.dtd">
<svg version="1.0" xmlns="http://www.w3.org/2000/svg"
 width="222.000000pt" height="222.000000pt" viewBox="0 0 222.000000 222.000000"
 preserveAspectRatio="xMidYMid meet">
<metadata>
Created by potrace 1.14, written by Peter Selinger 2001-2017
</metadata>
<g transform="translate(0.000000,222.000000) scale(0.100000,-0.100000)"
fill="#000000" stroke="none">
<path d="M1040 1673 c-36 -47 -68 -91 -73 -97 -5 -7 -16 -1 -32 19 -13 16 -26
27 -28 25 -2 -3 -61 -81 -131 -175 -71 -93 -131 -173 -135 -178 -4 -4 -34 29
-66 73 -32 44 -62 77 -65 73 -4 -5 -30 -38 -59 -76 l-53 -67 -17 22 c-18 21
-19 20 -200 -220 -156 -209 -181 -246 -181 -277 0 -20 5 -45 10 -56 7 -13 7
-19 1 -19 -15 0 19 -68 36 -75 9 -3 6 6 -7 23 l-22 27 21 3 c21 3 21 4 -4 36
-19 26 -23 39 -17 56 8 21 10 19 34 -26 14 -27 25 -63 26 -81 0 -17 6 -42 13
-55 8 -13 13 -27 14 -32 1 -25 22 -11 39 25 l20 40 13 -25 c7 -14 14 -37 15
-51 3 -30 9 -32 25 -6 9 14 9 21 1 23 -8 3 -8 9 0 23 10 19 23 64 27 95 1 8 8
28 17 44 l16 30 21 -42 c12 -23 17 -42 11 -42 -8 0 -8 -6 0 -20 12 -23 21 -73
20 -117 0 -17 4 -34 10 -38 6 -3 8 -10 5 -15 -9 -14 13 -22 22 -8 11 17 10 51
-1 59 -4 4 0 19 10 34 14 21 15 28 4 35 -8 5 -9 13 -4 21 17 27 31 78 22 81
-5 2 4 30 20 62 l30 58 30 -60 c19 -37 27 -62 20 -64 -7 -3 -5 -14 5 -35 9
-17 14 -33 11 -36 -3 -3 2 -20 11 -37 13 -25 14 -35 5 -40 -9 -6 -8 -15 4 -39
11 -21 13 -31 5 -31 -8 0 -6 -8 4 -23 18 -27 39 -29 44 -2 2 11 5 29 7 40 2
11 11 35 21 53 l17 33 25 -47 c14 -26 25 -62 26 -80 1 -19 4 -34 8 -34 8 0 23
31 21 42 -1 4 5 22 13 41 8 19 12 37 9 40 -3 3 4 24 17 48 l22 43 22 -44 c13
-25 21 -50 18 -56 -2 -7 1 -15 7 -19 9 -6 9 -9 0 -15 -9 -6 -8 -14 6 -35 l18
-27 18 24 c20 26 23 38 8 38 -7 0 -7 6 0 20 9 16 8 20 -5 20 -20 0 -19 8 5 48
22 35 26 57 10 47 -15 -9 -12 12 5 45 9 17 13 30 10 30 -3 0 1 14 10 30 14 27
14 30 0 30 -20 0 -20 -3 20 74 19 37 35 75 36 84 0 9 20 -21 43 -68 34 -65 41
-86 30 -90 -11 -4 -9 -15 11 -52 16 -31 21 -48 13 -50 -8 -3 -4 -18 12 -46 26
-46 34 -51 45 -24 5 14 10 10 26 -21 19 -36 44 -42 36 -9 -2 10 3 29 10 45 8
16 9 27 3 27 -5 0 2 25 17 54 l27 55 19 -42 c11 -23 21 -58 24 -77 2 -19 6
-37 9 -39 8 -9 24 23 19 37 -3 8 14 51 36 97 l42 84 37 -77 c22 -45 33 -80 27
-83 -6 -4 -2 -19 9 -38 14 -23 16 -34 7 -39 -8 -5 -5 -18 11 -45 21 -33 25
-36 36 -22 11 14 11 18 1 25 -9 5 -10 9 -2 14 6 4 9 12 5 17 -3 5 -10 7 -15 4
-15 -10 -11 5 12 41 11 19 18 38 14 44 -3 5 0 20 7 32 7 13 11 29 10 35 -2 7
2 22 8 33 7 14 7 20 0 20 -6 0 6 32 26 71 l36 72 33 -69 c24 -49 30 -71 22
-76 -9 -6 -6 -18 10 -47 16 -28 19 -41 10 -44 -9 -3 -6 -15 11 -44 26 -48 27
-53 7 -53 -18 0 -18 -8 -1 -39 10 -19 15 -21 22 -10 5 8 9 19 11 24 1 6 4 20
7 32 3 13 9 30 14 39 8 15 11 14 18 -7 10 -31 14 -48 20 -84 4 -30 20 -53 29
-43 4 3 8 19 10 34 2 16 4 29 5 29 1 0 3 8 6 18 9 36 10 43 18 66 12 35 24 13
40 -74 3 -16 17 -35 25 -35 7 0 12 12 26 78 2 6 0 12 -5 12 -4 0 -1 18 6 41 8
22 16 52 17 67 2 15 11 44 22 64 l18 36 18 -35 c10 -19 18 -42 18 -51 0 -31 9
-69 20 -90 8 -15 8 -22 -2 -25 -9 -4 -9 -7 0 -18 7 -7 14 -11 16 -8 25 28 77
103 77 110 0 5 -7 9 -15 9 -11 0 -10 8 7 37 15 25 18 38 10 41 -8 2 0 26 23
71 19 37 35 74 35 82 0 8 -10 -6 -21 -31 -17 -38 -22 -43 -32 -30 -87 114
-111 141 -123 136 -9 -4 -39 28 -85 89 -39 52 -75 95 -78 95 -4 0 -22 -20 -41
-45 -35 -47 -46 -53 -52 -33 -3 7 -22 -11 -44 -40 -30 -41 -41 -50 -49 -39 -5
7 -64 84 -129 171 l-120 157 -21 -27 -21 -26 -147 196 c-82 108 -149 196 -150
196 -2 0 -32 -39 -67 -87z"/>
<path d="M10 641 c0 -6 4 -13 10 -16 6 -3 7 1 4 9 -7 18 -14 21 -14 7z"/>
</g>
</svg>
